:SAMPLES-PER-SECOND 30
:FULLY-SPECIFIED
:DEGREES
264
root  10.28233325 37.64044394 -2.503911154 -1.836779714 6.241611004 -15.23550129
lfemur  -46.14479828 -6.049159527 6.572361946
ltibia  -1.491570742e-006 -8.364404493e-007 58.32080078
lfoot  5.521815751e-007 -5.76403904 5.435229778
ltoes  -4.250644065 -19.5611806 -102.515957
rfemur  0.0635863021 13.17090034 20.1637001
rtibia  -8.727266732e-007 2.533748784e-007 44.43889999
rfoot  -2.316020982e-006 -11.48110294 11.0635004
rtoes  5.373923086 19.29304026 -105.8922705
lowerback  11.21759987 6.976150036 -5.000199795
upperback  4.7853899 8.610980034 -3.47013998
thorax  -1.399099946 4.255350113 -1.900320053
rclavicle  0 -9.442270133e-015 7.951389973e-016
rhumerus  4.840310574 2.786210537 -57.49229813
rradius  -7.782816926e-012 0.001642658608 99.88269806
rwrist  0.002739921212 0.003270594636 7.191829681
rthumb  -92.93752616 -24.25625642 -97.11982154
rhand  -7.920061211e-032 -33.2840004 9.303460121
rfingers  -90 -7.125020027 -90
lclavicle  0 -9.442270133e-015 7.951389973e-016
lhumerus  9.628670692 -30.14109993 74.25379944
lradius  1.032089952e-011 0.005718162749 135.6100006
lwrist  1.816137865e-011 1.409039812e-011 11.18280029
lthumb  89.89689403 5.08795885 91.16245106
lhand  -1.496451383e-031 -27.76390076 20.11240005
lfingers  90 7.125020027 -90
lowerneck  3.480170012 -2.782629967 -6.819109917
upperneck  6.371180058 -5.095980167 26.76009941
head  2.060600281 -2.285830259 9.564949989
265
root  10.33673324 37.82688952 -2.45635547 -1.837260008 4.597430706 -15.68449974
lfemur  -44.97589493 -5.611420631 7.361497402
ltibia  -1.491570742e-006 -8.364404493e-007 57.91969681
lfoot  5.521815751e-007 -5.365637302 5.941180706
ltoes  -4.250644065 -19.5611806 -102.515957
rfemur  -0.1562401801 13.64750099 20.27769852
rtibia  -8.727266732e-007 2.533748784e-007 43.88648987
rfoot  -2.316020982e-006 -9.496542931 11.57349968
rtoes  5.373923086 19.29304026 -105.8922705
lowerback  10.84589958 6.921830177 -4.571020126
upperback  4.496180058 8.594209671 -3.573889971
thorax  -1.425989985 4.254700184 -2.206010103
rclavicle  0 -9.442270133e-015 7.951389973e-016
rhumerus  1.10198915 3.317419529 -59.55730057
rradius  -7.782816926e-012 0.001642658608 103.2890015
rwrist  0.002739921212 0.003270594636 7.240419865
rthumb  -92.93752616 -24.25625642 -97.11982154
rhand  -7.920061211e-032 -33.2840004 9.303460121
rfingers  -90 -7.125020027 -90
lclavicle  0 -9.442270133e-015 7.951389973e-016
lhumerus  9.857769966 -30.03619957 73.99510193
lradius  1.032089952e-011 0.005718162749 136.0820007
lwrist  1.816137865e-011 1.409039812e-011 11.33370018
lthumb  89.89689403 5.08795885 91.16245106
lhand  -1.496451383e-031 -27.76390076 20.11240005
lfingers  90 7.125020027 -90
lowerneck  4.114759922 -2.427449942 -6.342879772
upperneck  6.964489937 -4.697879791 26.67079926
head  2.026890039 -2.084170341 9.471509933
266
root  10.39082234 38.04800079 -2.421555557 -1.728640079 2.809158087 -16.01409912
lfemur  -43.71439743 -5.050359726 8.025079727
ltibia  -1.491570742e-006 -8.364404493e-007 57.33119202
lfoot  5.521815751e-007 -4.718606472 6.386820316
ltoes  -4.250644065 -19.5611806 -102.515957
rfemur  -0.4919936359 14.14120102 20.24149895
rtibia  -8.727266732e-007 2.533748784e-007 43.25849152
rfoot  -2.316020982e-006 -7.333657265 12.0666008
rtoes  5.373923086 19.29304026 -105.8922705
lowerback  10.21590042 6.906640053 -4.373630047
upperback  4.397469997 8.636030197 -3.581500053
thorax  -1.159999967 4.276579857 -2.248800039
rclavicle  0 -9.442270133e-015 7.951389973e-016
rhumerus  -2.205559731 3.540029764 -61.49140167
rradius  -7.782816926e-012 0.001642658608 106.2350006
rwrist  0.002739921212 0.003270594636 7.11853981
rthumb  -92.93752616 -24.25625642 -97.11982154
rhand  -7.920061211e-032 -33.2840004 9.303460121
rfingers  -90 -7.125020027 -90
lclavicle  0 -9.442270133e-015 7.951389973e-016
lhumerus  10.27800083 -29.62709999 73.76229858
lradius  1.032090038e-011 0.005718162749 136.5370026
lwrist  1.816137865e-011 1.409039812e-011 11.66720009
lthumb  89.89689403 5.08795885 91.16245106
lhand  -1.496451383e-031 -27.76390076 20.11240005
lfingers  90 7.125020027 -90
lowerneck  4.571929932 -2.026639938 -5.924580097
upperneck  7.489940643 -4.211140156 26.34469986
head  1.992410064 -1.835890055 9.298239708
267
root  10.4632663 38.2948898 -2.399688818 -1.596170068 0.8994361758 -16.02079964
lfemur  -42.24069595 -4.49684 8.252999306
ltibia  -1.491570742e-006 -8.364404493e-007 56.59489059
lfoot  5.521815751e-007 -3.821096182 6.927999973
ltoes  -4.250644065 -19.5611806 -102.515957
rfemur  -0.8445593715 14.53040028 19.75029945
rtibia  -8.727266732e-007 2.533748784e-007 42.52799225
rfoot  -2.316020982e-006 -5.02677393 12.67910099
rtoes  5.373923086 19.29304026 -105.8922705
lowerback  9.400320053 6.854300022 -4.514120102
upperback  4.489860058 8.621219635 -3.571180105
thorax  -0.643378973 4.262569904 -2.048360109
rclavicle  0 -9.442270133e-015 7.951389973e-016
rhumerus  -4.996029377 3.728950024 -63.28150177
rradius  -7.782816926e-012 0.001642658608 108.7770004
rwrist  0.002739921212 0.003270594636 6.761330128
rthumb  -92.93752616 -24.25625642 -97.11982154
rhand  -7.920061211e-032 -33.2840004 9.303460121
rfingers  -90 -7.125020027 -90
lclavicle  0 -9.442270133e-015 7.951389973e-016
lhumerus  10.6960001 -28.8628006 73.5338974
lradius  1.032089952e-011 0.005718162749 137.0249939
lwrist  1.816137865e-011 1.409039812e-011 12.0309
lthumb  89.89689403 5.08795885 91.16245106
lhand  -1.496451383e-031 -27.76390076 20.11240005
lfingers  90 7.125020027 -90
lowerneck  4.975150108 -1.498550057 -5.711080074
upperneck  7.927120209 -3.533629894 25.98180008
head  1.917510152 -1.502660155 9.147459984
268
root  10.54819963 38.55955469 -2.386822287 -1.453249931 -1.207399607 -15.89209938
lfemur  -40.60899353 -3.883450985 8.321726799
ltibia  -1.491570742e-006 -8.364404493e-007 55.75478363
lfoot  5.521815751e-007 -2.949492455 7.583651066
ltoes  -4.250644065 -19.5611806 -102.515957
rfemur  -1.258964539 14.89590073 19.02699852
rtibia  -8.727266732e-007 2.533748784e-007 41.67478943
rfoot  -2.316020982e-006 -2.479950905 13.26729965
rtoes  5.373923086 19.29304026 -105.8922705
lowerback  8.904270172 6.770460129 -4.626200199
upperback  4.473790169 8.535470009 -3.642460108
thorax  -0.395668 4.21544981 -1.989899993
rclavicle  0 -9.442270133e-015 7.951389973e-016
rhumerus  -7.538228989 3.931289911 -65.15190125
rradius  -7.782816926e-012 0.001642658608 110.8799973
rwrist  0.002739921212 0.003270594636 6.177760124
rthumb  -92.93752616 -24.25625642 -97.11982154
rhand  -7.920061211e-032 -33.2840004 9.303460121
rfingers  -90 -7.125020027 -90
lclavicle  0 -9.442270133e-015 7.951389973e-016
lhumerus  10.82209969 -27.91250038 73.27680206
lradius  1.032089865e-011 0.005718162749 137.5740051
lwrist  1.816137865e-011 1.409039812e-011 12.14490032
lthumb  89.89689403 5.08795885 91.16245106
lhand  -1.496451383e-031 -27.76390076 20.11240005
lfingers  90 7.125020027 -90
lowerneck  5.235960007 -0.8784670234 -5.68915987
upperneck  8.58082962 -2.782649755 25.62549973
head  1.924409866 -1.114789963 9.033740044
